<ttFont>
<head>
    <!-- Most of this table will be recalculated by the compiler -->
    <tableVersion value="1.0"/>
    <fontRevision value="2.04"/>
    <checkSumAdjustment value="0xb7149da1"/>
    <magicNumber value="0x5f0f3cf5"/>
    <flags value="00000000 00000011"/>
    <unitsPerEm value="1000"/>
    <created value="Sun Oct  7 02:24:56 2018"/>
    <modified value="Fri Apr  9 20:39:36 2021"/>
    <xMin value="-454"/>
    <yMin value="-293"/>
    <xMax value="2159"/>
    <yMax value="968"/>
    <macStyle value="00000000 00000000"/>
    <lowestRecPPEM value="3"/>
    <fontDirectionHint value="2"/>
    <indexToLocFormat value="0"/>
    <glyphDataFormat value="0"/>
  </head>
          <CharString index="0">
            24 73 21 72 20 76 rrcurveto
            4 hlineto
            21 -76 21 -72 24 -73 31 -100 rcurveline
            -197 hlineto
            -169 -267 -102 callgsubr
            return
          </CharString>
          <CharString index="1">
            -106 callgsubr
            endchar
          </CharString>
          <CharString index="2">
            rmoveto
            -106 callsubr
          </CharString>
          <CharString index="3">
            203 -104 callgsubr
            return
          </CharString>
          <CharString index="4">
            87 vstem
            332 -12 -107 callgsubr
            return
          </CharString>
          <CharString index="5">
            -162 79 -92 122 vhcurveto
            18 69 -20 callsubr
            return
          </CharString>
          <CharString index="6">
            -71.5 71.5 return
          </CharString>
          <CharString index="7">
            323 -12 rmoveto
            134 101 72 211 hvcurveto
            40 callsubr
            -211 102 -72 134 vhcurveto
            return
          </CharString>
          <CharString index="8">
            348 -12 rmoveto
            88 72 32 44 42 hvcurveto
            276 -215 -69 139 -171 vlineto
            -24 -26 -45 -15 -47 hhcurveto
            -140 -78 104 165 163 85 102 132 66 42 -28 -34 33 hvcurveto
            46 54 rlineto
            40 -38 -60 41 -91 hhcurveto
            -174 -127 -129 -211 -214 123 -126 173 hvcurveto
            return
          </CharString>
          <CharString index="9">
            71 -305 238 249 71 -249 206 -26 callsubr
            return
          </CharString>
          <CharString index="10">
            85 vstem
            272 -12 rmoveto
            138 85 83 104 97 -59 45 -76 33 hvcurveto
            -93 40 rlineto
            -52 22 -57 24 63 vvcurveto
            59 49 37 73 61 48 -24 -38 40 vhcurveto
            45 54 rlineto
            48 -47 -69 33 -78 hhcurveto
            -119 -87 -74 -100 -96 71 -47 62 -26 hvcurveto
            94 -41 rlineto
            62 -28 47 -21 -67 vvcurveto
            -64 -51 -43 -86 -68 -66 33 49 -47 vhcurveto
            -50 -58 rlineto
            -59 57 81 -38 92 hhcurveto
            return
          </CharString>
          <CharString index="11">
            hstemhm
            82 -95 callgsubr
            return
          </CharString>
          <CharString index="12">
            -345 vlineto
            -40 callgsubr
            return
          </CharString>
          <CharString index="13">
            hmoveto
            388 -98 callsubr
            hlineto
            return
          </CharString>
          <CharString index="14">
            209 -12 rmoveto
            -1 callgsubr
            -89 callgsubr
            -38 46 66 -29 69 hhcurveto
            return
          </CharString>
          <CharString index="15">
            90 -94 callsubr
            return
          </CharString>
          <CharString index="16">
            279 -12 rmoveto
            66 52 23 27 42 hvcurveto
            -29 54 rlineto
            -23 -36 -39 -15 -46 hhcurveto
            return
          </CharString>
          <CharString index="17">
            rmoveto
            89 60 75 133 131 -60 75 -89 -90 -59 -75 -131 -133 59 -75 90 hvcurveto
            51 vmoveto
            -52 -35 53 104 104 35 51 52 51 35 -51 -104 -104 -35 -53 -51 hvcurveto
            return
          </CharString>
          <CharString index="18">
            68 298 hlineto
            -101 callgsubr
            return
          </CharString>
          <CharString index="19">
            vstem
            159 hmoveto
            96 hlineto
            68 260 13 46 10 46 11 49 rlinecurve
            4 hlineto
            12 -49 9 -45 12 -46 70 -261 rcurveline
            100 hlineto
            130 486 rlineto
            -78 hlineto
            -71 -281 -10 -46 -9 -44 44 callsubr
            -11 45 -11 44 -12 46 -76 281 rcurveline
            -80 hlineto
            -75 -281 -12 -45 -10 -45 44 callsubr
            -9 45 -9 44 -11 46 -72 281 rcurveline
            -84 hlineto
            return
          </CharString>
          <CharString index="20">
            62 callsubr
            86 -54 45 -57 33 64 callsubr
            39 30 49 57 67 vvcurveto
            99 -69 71 -111 -103 -78 -66 -98 -67 42 -47 47 -33 67 callsubr
            -60 -32 -60 -57 -83 vvcurveto
            -101 89 -74 120 vhcurveto
            hintmask 11011000
            45 360 rmoveto
            -77 30 -70 32 76 vvcurveto
            62 44 41 59 70 41 -50 -63 -47 -24 -43 -43 -38 vhcurveto
            hintmask 11100100
            -43 -299 rmoveto
            -78 -59 51 71 58 38 47 51 34 hvcurveto
            92 -37 81 -30 -82 vvcurveto
            -66 -51 -46 -74 vhcurveto
            endchar
          </CharString>
          <CharString index="21">
            78 vstem
            90 hmoveto
            75 361 hlineto
            58 -6 78 -4 58 vhcurveto
            4 hlineto
            52 -149 124 -340 rlineto
            55 hlineto
            124 340 52 149 -46 callgsubr
            -4 -58 -7 -78 -58 vvcurveto
            -361 78 656 -101 vlineto
            -124 -350 -16 -45 -13 -47 -16 59 callgsubr
            -16 45 -15 47 -16 45 -126 350 rcurveline
            -100 hlineto
            return
          </CharString>
          <CharString index="22">
            vstem
            274 -12 rmoveto
            58 55 23 39 44 hvcurveto
            -74 callgsubr
            -161 99 -93 129 hvcurveto
            return
          </CharString>
          <CharString index="23">
            32 27 26 36 38 78 callgsubr
            -38 -36 27 -26 33 hvcurveto
            return
          </CharString>
          <CharString index="24">
            -52 callgsubr
            hstem
            3 538 -100 callgsubr
            return
          </CharString>
          <CharString index="25">
            vstem
            -92 callsubr
            return
          </CharString>
          <CharString index="26">
            -94 hlineto
            -66 -20 22 31 27 14 16 17 15 hvcurveto
            -11 22 27 -6 24 hhcurveto
            99 79 65 104 41 -17 37 -23 22 hvcurveto
            100 63 -169 hlineto
            return
          </CharString>
          <CharString index="27">
            -12 rmoveto
            22 14 3 5 11 21 callgsubr
            -2 -9 -4 0 -5 hhcurveto
            -12 -11 10 26 hvcurveto
            return
          </CharString>
          <CharString index="28">
            -14 -12 71 -38 -21 486 -20 -27 callgsubr
            12 callgsubr
            486 -82 hlineto
            hintmask 10111000
            -95 callsubr
            return
          </CharString>
          <CharString index="29">
            -88 callgsubr
            endchar
          </CharString>
          <CharString index="30">
            rmoveto
            42 41 -141 167 -58 -55 rlineto
            endchar
          </CharString>
          <CharString index="31">
            hmoveto
            82 352 hlineto
            -84 callgsubr
            return
          </CharString>
          <CharString index="32">
            -21 200 67 321 68 return
          </CharString>
          <CharString index="33">
            89 0 -2 callsubr
            309 79 hintmask 01011100
            37 callsubr
            hintmask 01101100
            -69 callsubr
            hintmask 10011100
            -48 callgsubr
            hlineto
            return
          </CharString>
          <CharString index="34">
            vstem
            -98 callgsubr
            return
          </CharString>
          <CharString index="35">
            -20 -96 callsubr
            return
          </CharString>
          <CharString index="36">
            -12 -65 callsubr
            return
          </CharString>
          <CharString index="37">
            -111 -107 -97 -159 -159 103 -95 130 return
          </CharString>
          <CharString index="38">
            69 -6 70 -5 66 vhcurveto
            4 hlineto
            71 -135 238 -413 rlineto
            86 656 -79 -339 hlineto
            return
          </CharString>
          <CharString index="39">
            -21 427 71 -66 callsubr
            return
          </CharString>
          <CharString index="40">
            hstem
            87 83 308 80 vstem
            -100 callsubr
            return
          </CharString>
          <CharString index="41">
            -12 -72 callsubr
            return
          </CharString>
          <CharString index="42">
            66 -57 callsubr
            return
          </CharString>
          <CharString index="43">
            -61 callsubr
            endchar
          </CharString>
          <CharString index="44">
            -72 callgsubr
            -77 return
          </CharString>
          <CharString index="45">
            71 238 15 callgsubr
            return
          </CharString>
          <CharString index="46">
            169 21 -21 66 103 386 101 hstem
            90 75 394 -86 callsubr
            return
          </CharString>
          <CharString index="47">
            64 390 -52 hlineto
            -27 -20 -26 -12 -44 -8 rrcurveto
            -42 85 vlineto
            return
          </CharString>
          <CharString index="48">
            -31 0 60 callgsubr
            -82 callsubr
            return
          </CharString>
          <CharString index="49">
            27 callsubr
            305 -309 return
          </CharString>
          <CharString index="50">
            169 3 callsubr
            return
          </CharString>
          <CharString index="51">
            90 hmoveto
            -49 callsubr
            83 -311 -34 callsubr
            return
          </CharString>
          <CharString index="52">
            23 235 rmoveto
            -47 15 -38 20 40 vvcurveto
            32 28 23 34 36 29 -22 -34 -26 -13 -26 -29 -22 vhcurveto
            return
          </CharString>
          <CharString index="53">
            -15 callsubr
            hintmask 11110000
            -80 callgsubr
            hintmask 11101000
            -63 callgsubr
            endchar
          </CharString>
          <CharString index="54">
            -11 -42 callsubr
            225 82 hintmask 11001100
            -44 callsubr
            hintmask 11010100
            2 callsubr
            hintmask 10110100
            -7 70 rlineto
            hintmask 10101100
            -68 hlineto
            return
          </CharString>
          <CharString index="55">
            27 18 33 31 45 vvcurveto
            63 -55 40 -70 -67 -54 -41 -62 -41 24 -26 34 -22 vhcurveto
            -4 vlineto
            return
          </CharString>
          <CharString index="56">
            169 18 callsubr
            return
          </CharString>
          <CharString index="57">
            67 48 35 53 45 hvcurveto
            3 hlineto
            return
          </CharString>
          <CharString index="58">
            83 277 119 hlineto
            158 -277 rlineto
            94 hlineto
            -167 286 rlineto
            90 22 58 62 102 vvcurveto
            136 -96 48 -134 vhcurveto
            -205 hlineto
            return
          </CharString>
          <CharString index="59">
            67 hlineto
            8 136 22 97 95 121 rrcurveto
            36 -273 -55 201 vlineto
            -80 -109 -32 -91 -8 -135 rrcurveto
            return
          </CharString>
          <CharString index="60">
            7 -18 -24 5 -27 hhcurveto
            -99 -84 -67 -106 -58 31 -47 32 -26 hvcurveto
            -4 vlineto
            return
          </CharString>
          <CharString index="61">
            8 21 -21 260 68 261 67 hstem
            90 83 267 83 vstem
            90 -18 callgsubr
            endchar
          </CharString>
          <CharString index="62">
            31 hmoveto
            368 67 -264 hlineto
            256 375 rlineto
            44 -332 -67 228 vlineto
            -256 -375 rlineto
            return
          </CharString>
          <CharString index="63">
            -79 callgsubr
            vhcurveto
            return
          </CharString>
          <CharString index="64">
            271 -42 callsubr
            213 82 212 82 hintmask 11001110
            2 callgsubr
            hintmask 11010110
            47 callgsubr
            hintmask 10110110
            -7 70 rlineto
            hintmask 10101110
            -68 hlineto
            return
          </CharString>
          <CharString index="65">
            21 -68 callsubr
            return
          </CharString>
          <CharString index="66">
            rmoveto
            72 hlineto
            -16 140 161 53 131 vvcurveto
            99 -66 61 -101 -73 -57 -35 -48 -42 vhcurveto
            47 -43 rlineto
            36 31 40 22 44 hhcurveto
            64 33 -44 -53 -106 -159 -57 22 -156 hvcurveto
            38 -210 rmoveto
            33 27 26 36 return
          </CharString>
          <CharString index="67">
            rmoveto
            59 22 36 49 59 vvcurveto
            48 -20 25 -33 -25 -22 -18 -28 -28 22 -14 23 3 2 0 1 3 vhcurveto
            -37 -24 -27 -40 -15 vhcurveto
            endchar
          </CharString>
          <CharString index="68">
            -25 -17 -28 -32 -41 vvcurveto
            -38 19 -26 24 -15 vhcurveto
            -4 vlineto
            return
          </CharString>
          <CharString index="69">
            83 222 -68 callgsubr
            return
          </CharString>
          <CharString index="70">
            -303 -12 68 656 -20 hstem
            82 82 vstem
            -51 callsubr
            return
          </CharString>
          <CharString index="71">
            328 rmoveto
            79 39 -52 -83 -84 -48 -56 -63 hvcurveto
            hintmask 11101100
            -81 -49 67 124 -10 hvcurveto
            hintmask 11110100
            59 40 52 25 41 hhcurveto
            7 -340 rmoveto
            103 86 83 122 131 -72 66 -110 -52 -57 -31 -49 -40 hvcurveto
            72 callgsubr
            46 51 rlineto
            39 -36 -49 29 -69 hhcurveto
            -127 -116 -99 -256 -205 95 -102 125 hvcurveto
            endchar
          </CharString>
          <CharString index="72">
            rmoveto
            55 81 31 80 113 vvcurveto
            112 -31 79 -55 81 vhcurveto
            -47 -22 rlineto
            51 -78 20 -84 -88 vvcurveto
            -89 -20 -83 -51 -80 vhcurveto
            endchar
          </CharString>
          <CharString index="73">
            rmoveto
            244 110 vlineto
            102 57 -31 -86 -85 -57 -42 -102 hvcurveto
            return
          </CharString>
          <CharString index="74">
            108 -87 -21 548 108 0 -20 return
          </CharString>
          <CharString index="75">
            445 rmoveto
            84 49 56 62 81 49 -66 -124 11 vhcurveto
            -60 -41 -51 -25 -42 hhcurveto
            -79 -39 52 83 hvcurveto
            88 -457 rmoveto
            127 116 99 256 205 -94 102 -126 -102 -86 -83 -122 -131 71 -66 110 53 57 31 51 40 hvcurveto
            -204 -3 -76 -70 -90 hhcurveto
            -40 -39 20 31 -26 hvcurveto
            -46 -52 rlineto
            -38 35 51 -29 68 hhcurveto
            endchar
          </CharString>
          <CharString index="76">
            hstem
            90 83 47 callsubr
            return
          </CharString>
          <CharString index="77">
            -112 42 callgsubr
            hstem
            14 418 vstem
            14 hmoveto
            86 hlineto
            66 113 16 30 16 29 17 28 rlinecurve
            4 hlineto
            18 -28 18 -30 17 -29 71 -113 rcurveline
            89 hlineto
            -158 245 147 241 rlineto
            -86 hlineto
            -59 -107 -15 -26 -15 -28 -14 -27 rlinecurve
            -4 hlineto
            -17 27 -16 28 -15 26 -65 107 rcurveline
            -89 hlineto
            147 -232 rlineto
            endchar
          </CharString>
          <CharString index="78">
            7 -16 -15 3 -21 hhcurveto
            -55 -50 -39 -61 -33 hvcurveto
            -3 hlineto
            return
          </CharString>
          <CharString index="79">
            73 callgsubr
            120 108 hstemhm
            68 110 -95 82 hintmask 11101000
            24 callgsubr
            hintmask 11110000
            91 803 -105 callsubr
          </CharString>
          <CharString index="80">
            -309 -1 115 235 126 hstemhm
            65 119 -47 61 hintmask 11100000
            16 callgsubr
            -58 -519 rmoveto
            hintmask 11010000
            81 34 50 67 86 vvcurveto
            60 -26 37 -43 -33 -28 -22 -36 -37 27 -20 32 3 4 0 1 3 vhcurveto
            1 -53 -34 -44 -57 -25 rrcurveto
            endchar
          </CharString>
          <CharString index="81">
            295 70 -378 return
          </CharString>
          <CharString index="82">
            vstem
            -22 callsubr
            return
          </CharString>
          <CharString index="83">
            -295 1 callgsubr
            return
          </CharString>
          <CharString index="84">
            -211 21 -21 424 74 -12 -20 22 -72 callsubr
            hintmask 11000100
            -36 callgsubr
            hintmask 10010100
            16 72 rlineto
            hintmask 11001000
            -29 callsubr
            hintmask 10101000
            -7 88 rlineto
            hintmask 10100100
            -68 hlineto
            return
          </CharString>
          <CharString index="85">
            90 hmoveto
            83 208 hlineto
            113 133 196 -341 rlineto
            93 hlineto
            -237 406 205 250 rlineto
            -94 hlineto
            -273 -329 rlineto
            -3 329 -83 hlineto
            return
          </CharString>
          <CharString index="86">
            rmoveto
            79 59 49 63 47 -28 31 -45 23 hvcurveto
            4 vlineto
            return
          </CharString>
          <CharString index="87">
            rmoveto
            -85 -49 -19 callsubr
            62 75 78 -58 callgsubr
            -254 -54 callgsubr
            return
          </CharString>
          <CharString index="88">
            70 116 111 return
          </CharString>
          <CharString index="89">
            -102 callsubr
            endchar
          </CharString>
          <CharString index="90">
            82 hmoveto
            81 128 hlineto
            91 106 142 -234 rlineto
            90 hlineto
            -185 291 163 195 rlineto
            -91 hlineto
            -207 -256 rlineto
            -3 482 -81 hlineto
            return
          </CharString>
          <CharString index="91">
            -103 -63 callsubr
            72 callsubr
            vlineto
            return
          </CharString>
          <CharString index="92">
            rmoveto
            76 63 45 72 52 -40 33 -44 11 hvcurveto
            return
          </CharString>
          <CharString index="93">
            -21 586 70 -3 callsubr
            return
          </CharString>
          <CharString index="94">
            vstem
            249 -12 rmoveto
            127 77 119 214 214 -77 115 -127 -128 -77 -115 -214 -214 77 -119 128 hvcurveto
            return
          </CharString>
          <CharString index="95">
            183 254 -88 callgsubr
            return
          </CharString>
          <CharString index="96">
            hmoveto
            168 hlineto
            198 108 122 209 208 -108 117 -202 hvcurveto
            -164 return
          </CharString>
          <CharString index="97">
            -6 21 23 -2 19 hhcurveto
            84 hlineto
            63 35 -15 -45 hvcurveto
            return
          </CharString>
          <CharString index="98">
            66 -33 -21 430 68 return
          </CharString>
          <CharString index="99">
            27 callgsubr
            541 -82 -541 -22 callgsubr
            return
          </CharString>
          <CharString index="100">
            62 vlineto
            64 28 35 48 24 20 -4 -9 21 vhcurveto
            17 62 rlineto
            11 -24 -33 7 -32 hhcurveto
            -101 -50 -63 -101 hvcurveto
            -64 vlineto
            -66 -5 rlineto
            return
          </CharString>
          <CharString index="101">
            586 198 70 -480 -70 198 hlineto
            return
          </CharString>
          <CharString index="102">
            hstem
            45 452 -28 callgsubr
            return
          </CharString>
          <CharString index="103">
            -12 17 callgsubr
            return
          </CharString>
          <CharString index="104">
            hstem
            226 84 vstem
            -15 callgsubr
            return
          </CharString>
          <CharString index="105">
            -33 callsubr
            hstemhm
            90 79 return
          </CharString>
          <CharString index="106">
            69 372 69 return
          </CharString>
          <CharString index="107">
            -312 42 callgsubr
            return
          </CharString>
          <CharString index="108">
            -78 21 callsubr
            8 callsubr
            endchar
          </CharString>
          <CharString index="109">
            -67 -50 -36 -46 -46 hvcurveto
            -3 hlineto
            return
          </CharString>
          <CharString index="110">
            59 151 65 return
          </CharString>
          <CharString index="111">
            vstem
            -86 callgsubr
            return
          </CharString>
          <CharString index="112">
            rmoveto
            -76 callgsubr
            return
          </CharString>
          <CharString index="113">
            -39 -22 -45 hhcurveto
            return
          </CharString>
          <CharString index="114">
            -77 -106 -117 return
          </CharString>
          <CharString index="115">
            hstem
            309 84 vstem
            212 -12 rmoveto
            128 53 92 113 hvcurveto
            463 -84 -455 vlineto
            -100 -35 -40 -70 -47 -37 22 52 -29 vhcurveto
            -60 -42 rlineto
            -69 38 60 -36 83 hhcurveto
            return
          </CharString>
          <CharString index="116">
            -21 427 71 return
          </CharString>
          <CharString index="117">
            59 -12 33 callgsubr
            return
          </CharString>
          <CharString index="118">
            65 callgsubr
            46 return
          </CharString>
          <CharString index="119">
            119 -93.5 68 return
          </CharString>
          <CharString index="120">
            -133 0 67 352 67 hstem
            31 368 vstem
            -45 callsubr
            return
          </CharString>
          <CharString index="121">
            -56 -42 84 -79 hhcurveto
            -43 -46 -26 -64 -36 hvcurveto
            46 -33 rlineto
            43 23 25 18 29 hhcurveto
            return
          </CharString>
          <CharString index="122">
            26 callgsubr
            hvcurveto
            return
          </CharString>
          <CharString index="123">
            64.5 -64.5 67 return
          </CharString>
          <CharString index="124">
            81 callgsubr
            42 callsubr
            vhcurveto
            -16 62 rlineto
            -6 -16 -22 -7 -17 hhcurveto
            -56 -20 34 60 hvcurveto
            270 132 67 -132 136 vlineto
            return
          </CharString>
          <CharString index="125">
            -80 callsubr
            620 -82 -614 18 callgsubr
            return
          </CharString>
          <CharString index="126">
            -12 33 callsubr
            return
          </CharString>
          <CharString index="127">
            -76 -5 rlineto
            -62 72 -269 vlineto
            return
          </CharString>
          <CharString index="128">
            -12 43 callgsubr
            return
          </CharString>
          <CharString index="129">
            vvcurveto
            38 callgsubr
            return
          </CharString>
          <CharString index="130">
            0 46 callsubr
            return
          </CharString>
          <CharString index="131">
            -21 486 -20 return
          </CharString>
          <CharString index="132">
            248 -12 rmoveto
            return
          </CharString>
          <CharString index="133">
            -69 35 callsubr
            return
          </CharString>
          <CharString index="134">
            hmoveto
            83 309 return
          </CharString>
          <CharString index="135">
            50 callsubr
            97 166 150 -67 97 -126 -54 -54 -29 -39 -44 hvcurveto
            2 88 rlineto
            194 -82 vlineto
            return
          </CharString>
          <CharString index="136">
            -20 callsubr
            endchar
          </CharString>
          <CharString index="137">
            43 46 26 63 36 hvcurveto
            -46 34 rlineto
            -43 -23 -25 -18 -29 hhcurveto
            return
          </CharString>
          <CharString index="138">
            -12 -60 callgsubr
            return
          </CharString>
          <CharString index="139">
            82 hmoveto
            82 23 callgsubr
            return
          </CharString>
          <CharString index="140">
            20 callgsubr
            hstem
            46 85 return
          </CharString>
          <CharString index="141">
            -84 82 -47 119 vhcurveto
            return
          </CharString>
          <CharString index="142">
            hlineto
            -10 -136 rlineto
            return
          </CharString>
          <CharString index="143">
            -98 -158 -162 57 callsubr
            return
          </CharString>
          <CharString index="144">
            90 hmoveto
            79 343 hlineto
            return
          </CharString>
          <CharString index="145">
            69 -36 -21 429 69 return
          </CharString>
          <CharString index="146">
            224 -12 rmoveto
            return
          </CharString>
          <CharString index="147">
            385 -80 -387 vlineto
            -87 callgsubr
            return
          </CharString>
          <CharString index="148">
            51 312 61 callsubr
            vstem
            184 return
          </CharString>
          <CharString index="149">
            30 33 9 9 27 return
          </CharString>
          <CharString index="150">
            42 100 -105 callsubr
          </CharString>
          <CharString index="151">
            -11 59 callgsubr
            return
          </CharString>
          <CharString index="152">
            hvcurveto
            -43 -33 rlineto
            -44 return
          </CharString>
          <CharString index="153">
            71 515 70 return
          </CharString>
          <CharString index="154">
            vstem
            90 hmoveto
            83 return
          </CharString>
          <CharString index="155">
            46 179 61 hstem
            220 58 vstem
            109 return
          </CharString>
          <CharString index="156">
            47 hstemhm
            94 62 -62 179 return
          </CharString>
          <CharString index="157">
            297 -12 rmoveto
            111 99 return
          </CharString>
          <CharString index="158">
            29 -3 callgsubr
            return
          </CharString>
          <CharString index="159">
            -12 65 275 62 191 69 return
          </CharString>
          <CharString index="160">
            546 hstem
            65 62 vstem
            153 return
          </CharString>
          <CharString index="161">
            82 hstem
            172 64 vstem
            172 return
          </CharString>
          <CharString index="162">
            55 293 54 hstem
            237 63 vstem
            52 return
          </CharString>
          <CharString index="163">
            17 76 callsubr
            return
          </CharString>
          <CharString index="164">
            79 -92 122 hvcurveto
            return
          </CharString>
          <CharString index="165">
            -21 656 -20 return
          </CharString>
          <CharString index="166">
            194 -12 rmoveto
            return
          </CharString>
          <CharString index="167">
            259 hstem
            81.5 85 return
          </CharString>
          <CharString index="168">
            51 hstem
            75 callgsubr
            return
          </CharString>
          <CharString index="169">
            -12 rmoveto
            124 82 75 95 return
          </CharString>
          <CharString index="170">
            -12 38 callsubr
            return
          </CharString>
          <CharString index="171">
            hvcurveto
            4 vlineto
            hintmask 11011000
            return
          </CharString>
          <CharString index="172">
            95 hstem
            43 91 vstem
            89 return
          </CharString>
          <CharString index="173">
            78 -78 80 251 78 return
          </CharString>
          <CharString index="174">
            vhcurveto
            -4 vlineto
            hintmask 11100100
            return
          </CharString>
          <CharString index="175">
            41 132 51 hstemhm
            return
          </CharString>
          <CharString index="176">
            39 91 hvcurveto
            297 return
          </CharString>
          <CharString index="177">
            573 208 hstem
            return
          </CharString>
          <CharString index="178">
            -61 192 62 152 62 hstem
            34 429 vstem
            return
          </CharString>
          <CharString index="179">
            vlineto
            -66 -5 rlineto
            -62 66 return
          </CharString>
          <CharString index="180">
            111 99 97 165 return
          </CharString>
          <CharString index="181">
            69 callsubr
            -83 return
          </CharString>
          <CharString index="182">
            62 173 63 return
          </CharString>
          <CharString index="183">
            25 -6 30 hhcurveto
            return
          </CharString>
          <CharString index="184">
            rmoveto
            hintmask 11010000
            179 47 hlineto
            hintmask 11100000
            -117 return
          </CharString>
          <CharString index="185">
            80 vstem
            40 hmoveto
            412 71 return
          </CharString>
          <CharString index="186">
            rmoveto
            -32 -43 14 37 -44 hvcurveto
            return
          </CharString>
          <CharString index="187">
            hvcurveto
            4 vlineto
            hintmask 11111000
            return
          </CharString>
          <CharString index="188">
            352 vlineto
            50 45 return
          </CharString>
          <CharString index="189">
            -255 -152 47 return
          </CharString>
          <CharString index="190">
            rrcurveto
            51 -411 -71 318 vlineto
            -126 return
          </CharString>
          <CharString index="191">
            rlineto
            35 -43 -37 return
          </CharString>
          <CharString index="192">
            -80 vhcurveto
            -44 -47 26 hlineto
            54 14 return
          </CharString>
          <CharString index="193">
            -152 -11 -240 rrcurveto
            endchar
          </CharString>
          <CharString index="194">
            56 42 -84 79 hhcurveto
            return
          </CharString>
          <CharString index="195">
            21 -21 176 66 308 88 hstem
            return
          </CharString>
          <CharString index="196">
            62 hstem
            216 65 vstem
            216 return
          </CharString>
          <CharString index="197">
            -61 21 -21 return
          </CharString>
          <CharString index="198">
            -61 -12 66 return
          </CharString>
          <CharString index="199">
            47 hstemhm
            120 72 -13 90 hintmask 11110000
            31 return
          </CharString>
        <CharString name=".notdef">
          95 endchar
        </CharString>
        <CharString name="A">
          -83 callsubr
          endchar
        </CharString>
        <CharString name="B">
          -64 callgsubr
        </CharString>
        <CharString name="C">
          13 -4 callsubr
          -65 callgsubr
          endchar
        </CharString>
        <CharString name="D">
          57 0 68 520 68 4 callgsubr
          endchar
        </CharString>
        <CharString name="E">
          -59 callsubr
          endchar
        </CharString>
        <CharString name="F">
          90 callgsubr
          -31 callsubr
          294 250 70 -250 222 -26 callsubr
          hlineto
          endchar
        </CharString>
        <CharString name="G">
          -20 callgsubr
          endchar
        </CharString>
        <CharString name="H">
          -13 callgsubr
        </CharString>
        <CharString name="I">
          -16 callgsubr
          endchar
        </CharString>
        <CharString name="J">
          1 callsubr
        </CharString>
        <CharString name="K">
          21 1 callgsubr
          hstem
          90 83 -25 callsubr
          endchar
        </CharString>
        <CharString name="L">
          -72 0 71 585 -20 hstem
          90 83 50 callgsubr
          endchar
        </CharString>
        <CharString name="M">
          -64 callsubr
        </CharString>
        <CharString name="N">
          -74 callsubr
          endchar
        </CharString>
        <CharString name="O">
          -90 callgsubr
          endchar
        </CharString>
        <CharString name="P">
          -46 callsubr
        </CharString>
        <CharString name="Q">
          106 -165 70 87 65 538 73 hstem
          52 86 388 87 vstem
          332 57 rmoveto
          -117 -77 106 168 163 77 101 117 117 77 -101 -163 -168 7 callsubr
          hvcurveto
          201 -222 rmoveto
          39 35 7 8 20 hvcurveto
          -16 64 rlineto
          -5 -18 -22 -4 -29 hhcurveto
          -71 -60 29 58 -30 hvcurveto
          139 24 93 126 189 22 callsubr
          -193 96 -127 143 -20 vhcurveto
          -90 38 83 -66 121 hhcurveto
          endchar
        </CharString>
        <CharString name="R">
          -10 callgsubr
          endchar
        </CharString>
        <CharString name="S">
          -61 callgsubr
          endchar
        </CharString>
        <CharString name="T">
          -22 21 -14 callsubr
          endchar
        </CharString>
        <CharString name="U">
          14 callgsubr
          -67 callsubr
          endchar
        </CharString>
        <CharString name="V">
          -43 0 85 571 -20 hstem
          0 515 vstem
          210 hmoveto
          97 hlineto
          208 656 rlineto
          -85 hlineto
          -105 -354 -23 -78 -16 -62 -24 -77 rlinecurve
          -4 hlineto
          -25 77 -15 62 -24 78 -105 354 rcurveline
          -89 hlineto
          endchar
        </CharString>
        <CharString name="W">
          228 0 87 457 112 0 -20 hstemhm
          23 739 hintmask 10110000
          39 callgsubr
          hintmask 11010000
          -83 callgsubr
          endchar
        </CharString>
        <CharString name="X">
          -50 callgsubr
        </CharString>
        <CharString name="Y">
          -70 callgsubr
          endchar
        </CharString>
        <CharString name="Z">
          -9 callgsubr
          endchar
        </CharString>
        <CharString name="a">
          -26 callgsubr
          -8 callgsubr
          hintmask 10111000
          59 callsubr
          hintmask 10110100
          -31 callgsubr
          hintmask 01110100
          7 -58 rlineto
          hintmask 01111000
          -89 callsubr
          hintmask 10111000
          -97 callgsubr
          endchar
        </CharString>
        <CharString name="ampersand">
          51 -12 66 555 59 hstemhm
          32 80 6 71 143 67 hintmask 11011000
          189 514 rmoveto
          54 32 41 49 44 18 -34 -38 -58 -52 -40 -60 -40 vhcurveto
          -19 40 -12 39 36 vvcurveto
          hintmask 11101000
          43 -526 rmoveto
          77 62 30 45 50 hvcurveto
          53 -37 52 -25 46 -13 22 68 rcurveline
          -36 10 -42 22 -45 31 52 69 37 80 26 86 rrcurveto
          -77 hlineto
          -20 -75 -32 -65 -40 -54 -62 52 -61 65 -43 67 rrcurveto
          73 53 75 55 86 vvcurveto
          77 -48 53 -81 vhcurveto
          hintmask 11011000
          -91 -61 -68 -87 -48 16 -52 27 -54 hvcurveto
          hintmask 11101000
          -67 -46 -62 -55 -88 vvcurveto
          -106 81 -76 119 vhcurveto
          -120 187 rmoveto
          51 36 39 46 37 vhcurveto
          46 -71 62 -68 64 -56 rrcurveto
          -33 -38 -42 -20 -45 hhcurveto
          -72 -57 48 73 hvcurveto
          endchar
        </CharString>
        <CharString name="asciicircum">
          -61 593 77 hstem
          60 377 vstem
          60 284 rmoveto
          72 hlineto
          65 176 50 133 -46 callgsubr
          49 -133 65 -176 rlineto
          72 hlineto
          -152 386 rlineto
          -73 hlineto
          endchar
        </CharString>
        <CharString name="asciitilde">
          -61 257 62 22 62 hstemhm
          36 425 vstemhm
          336 257 rmoveto
          30 callsubr
          hintmask 01100000
          14 callsubr
          hintmask 11100000
          87 callsubr
          endchar
        </CharString>
        <CharString name="asterisk">
          -140 420 292 hstem
          179.5 58 vstem
          138 420 rmoveto
          71 86 71 -86 39 29 -56 94 97 40 -15 46 -103 -24 -9 107 rlineto
          -49 hlineto
          -9 -108 -102 25 -15 -46 97 -40 -57 -94 rlineto
          endchar
        </CharString>
        <CharString name="at">
          289 -155 55 149 56 -48 56 260 57 161 55 hstemhm
          51 60 138 66 178 49 196 58 hintmask 1101111110000000
          403 -155 rmoveto
          69 63 16 35 58 hvcurveto
          -22 49 rlineto
          -26 -45 -56 -19 -61 hhcurveto
          -170 -128 111 195 234 172 151 178 182 95 -118 -161 -130 -71 -77 -63 -55 -19 38 79 20 hvcurveto
          39 200 rlineto
          -55 hlineto
          -11 -40 rlineto
          -2 hlineto
          33 -18 -28 15 -34 hhcurveto
          -117 -75 -125 -107 88 callgsubr
          -91 52 -50 68 44 45 29 39 33 vhcurveto
          2 hlineto
          hintmask 1101111110000000
          -50 7 42 -26 54 hhcurveto
          91 109 91 175 197 -126 134 -202 -224 -193 -175 -268 -233 156 -125 196 88 callgsubr
          -18 268 rmoveto
          -40 -30 26 64 75 48 95 79 27 18 -11 -31 19 hvcurveto
          -29 -159 rlineto
          -41 -34 -30 -18 -28 hhcurveto
          endchar
        </CharString>
        <CharString name="b">
          -5 63 callsubr
          214 -20 hstemhm
          82 69.5 -69.5 82 258 85 hintmask 10110110
          28 callsubr
          hintmask 01110110
          -712 vlineto
          hintmask 01111010
          66 hlineto
          hintmask 10111010
          7 50 rlineto
          3 hlineto
          hintmask 10110110
          -5 callgsubr
          endchar
        </CharString>
        <CharString name="backslash">
          -208 -160 870 hstem
          14 326 vstem
          281 -160 rmoveto
          59 hlineto
          -267 870 rlineto
          -59 hlineto
          endchar
        </CharString>
        <CharString name="bar">
          -317 84 callgsubr
          vstem
          92 -250 rmoveto
          58 1000 -58 hlineto
          endchar
        </CharString>
        <CharString name="braceleft">
          82 callsubr
          357 52 357 89 callgsubr
          -152 rmoveto
          45 47 -27 hlineto
          -54 -14 26 65 hvcurveto
          61 6 52 68 vvcurveto
          64 -17 33 -43 12 vhcurveto
          4 vlineto
          43 12 17 32 65 68 -6 52 61 vvcurveto
          65 14 26 87 callgsubr
          -30 -103 hvcurveto
          -73 9 -53 -68 vvcurveto
          hintmask 11110000
          -38 -18 -38 -68 -1 vhcurveto
          -52 vlineto
          hintmask 11101000
          68 -1 18 -38 -39 -67 -9 -53 -73 vvcurveto
          -103 38 -30 79 vhcurveto
          endchar
        </CharString>
        <CharString name="braceright">
          82 callsubr
          357 52 357 92 callsubr
          -152 rmoveto
          44 hlineto
          80 37 30 103 hvcurveto
          73 -9 53 67 vvcurveto
          hintmask 11101000
          39 19 38 67 1 vhcurveto
          52 vlineto
          hintmask 11110000
          -67 1 -19 38 38 68 9 53 73 vvcurveto
          103 -37 30 85 callsubr
          -26 -65 hvcurveto
          -61 -5 -52 -68 vvcurveto
          -65 16 -32 43 -12 vhcurveto
          -4 vlineto
          -43 -12 -16 -33 -64 -68 5 -52 -61 vvcurveto
          -65 -14 -26 -54 vhcurveto
          -26 hlineto
          endchar
        </CharString>
        <CharString name="bracketleft">
          82 callsubr
          766 49 callsubr
          hintmask 11100000
          94 -152 77 callsubr
          766 70 callgsubr
        </CharString>
        <CharString name="bracketright">
          82 callsubr
          766 83 callgsubr
          hintmask 11100000
          31 -152 rmoveto
          hintmask 11010000
          178 860 hlineto
          hintmask 11100000
          -178 -47 hlineto
          hintmask 11010000
          116 -766 hlineto
          hintmask 11100000
          -116 hlineto
          endchar
        </CharString>
        <CharString name="c">
          -42 callgsubr
          endchar
        </CharString>
        <CharString name="colon">
          -309 -12 126 235 126 hstem
          65 119 vstem
          16 callgsubr
          -361 vmoveto
          -84 callsubr
          endchar
        </CharString>
        <CharString name="comma">
          -309 -1 115 hstem
          137 61 vstem
          67 -170 rmoveto
          81 34 50 67 86 vvcurveto
          60 -26 37 -43 -33 -28 -22 -36 -37 27 -20 32 3 4 0 1 3 vhcurveto
          1 -53 -34 -44 -57 -25 rrcurveto
          endchar
        </CharString>
        <CharString name="comma.dnom">
          -381 -1 79 callgsubr
          -116 -40 callsubr
        </CharString>
        <CharString name="comma.numr">
          -381 265 79 callgsubr
          150 -40 callsubr
        </CharString>
        <CharString name="d">
          -3 63 callsubr
          214 -20 hstemhm
          47 85 258 -93 callgsubr
          hintmask 10111100
          25 callsubr
          hintmask 10111010
          -53 callgsubr
          hintmask 01111010
          7 -57 rlineto
          hintmask 01111100
          46 callgsubr
          hintmask 10111100
          -18 callsubr
        </CharString>
        <CharString name="dollar">
          -61 -110 166 -67 67 525 68 -68 167 -101 -20 22 -20 hstemhm
          77 81 64 60 74 81 hintmask 1000011110000000
          222 -110 rmoveto
          60 hlineto
          hintmask 0110001110000000
          101 vlineto
          95 13 60 66 95 215 -279 -40 145 vvcurveto
          58 39 38 61 54 31 -21 -36 37 vhcurveto
          44 49 -36 38 -42 31 -64 7 rlinecurve
          hintmask 0101001110000000
          99 -60 vlineto
          hintmask 0100101110000000
          -101 vlineto
          -87 -13 -58 -64 -89 -195 279 35 -162 vvcurveto
          -62 -37 -41 -74 -61 -51 30 37 -43 vhcurveto
          -38 -57 42 -39 64 -32 64 -6 rlinecurve
          endchar
        </CharString>
        <CharString name="e">
          -62 11 callsubr
          80 -80 81 259 72 hintmask 11110100
          -91 callsubr
          hintmask 11101100
          -94 callgsubr
          hintmask 11110100
          -96 callgsubr
          endchar
        </CharString>
        <CharString name="eight">
          -61 -12 61 540 61 hstemhm
          41 30 callgsubr
          250 -87 callsubr
        </CharString>
        <CharString name="eight.dnom">
          -191 -12 25 callgsubr
          -12 -32 callgsubr
        </CharString>
        <CharString name="eight.numr">
          -191 254 25 callgsubr
          254 -32 callgsubr
        </CharString>
        <CharString name="equal">
          71 callsubr
          34 406 rmoveto
          51 callgsubr
          -276 vmoveto
          64 callgsubr
        </CharString>
        <CharString name="exclam">
          -269 -12 126 -105 -21 hstemhm
          85 12 callsubr
          hintmask 01010000
          116 198 10 callgsubr
          hintmask 01100000
          40 -588 rmoveto
          32 27 26 36 hvcurveto
          hintmask 10100000
          38 78 callgsubr
          -38 vhcurveto
          hintmask 01100000
          -36 27 -26 33 vhcurveto
          endchar
        </CharString>
        <CharString name="f">
          -266 61 callgsubr
          171 67 hstemhm
          96 82 -82 185 hintmask 11110000
          96 hmoveto
          82 419 91 callgsubr
          93 callgsubr
          hintmask 11110000
          -16 callsubr
          endchar
        </CharString>
        <CharString name="f_f">
          19 61 callgsubr
          161 67 -57 67 -10 -20 hstemhm
          96 82 203 82 -82 185 hintmask 11100110
          381 hmoveto
          82 419 hlineto
          hintmask 11100101
          103 67 92 callgsubr
          -103 -63 callsubr
          -203 vlineto
          hintmask 11100110
          62 vlineto
          64 28 35 48 24 20 -4 -9 21 vhcurveto
          hintmask 11001110
          17 62 rlineto
          hintmask 11100110
          11 -24 -33 7 -32 hhcurveto
          -101 -50 -63 -101 hvcurveto
          -64 vlineto
          -66 -5 rlineto
          44 callgsubr
          endchar
        </CharString>
        <CharString name="f_f_t">
          321 -12 67 364 16 callsubr
          161 67 -57 67 hstemhm
          96 82 203 82 174 82 -73 73 hintmask 1011011100000000
          381 hmoveto
          82 419 174 -269 hlineto
          17 callsubr
          hintmask 1010111010000000
          -68 35 callsubr
          -178 -63 callsubr
          -203 vlineto
          hintmask 1101011100000000
          -7 callsubr
          hintmask 1011011100000000
          44 callgsubr
          endchar
        </CharString>
        <CharString name="f_t">
          36 -12 67 -34 80 callgsubr
          171 67 hstemhm
          96 82 174 82 -73 73 hintmask 01111100
          96 hmoveto
          82 419 174 -269 hlineto
          hintmask 10111100
          17 callsubr
          hintmask 10111010
          -68 35 callsubr
          -178 -63 callsubr
          72 callsubr
          vlineto
          endchar
        </CharString>
        <CharString name="five">
          -19 callgsubr
        </CharString>
        <CharString name="five.dnom">
          -191 -12 71 callgsubr
          -12 -78 callsubr
        </CharString>
        <CharString name="five.numr">
          -191 254 51 172 43 80 56 hstem
          259 64 vstem
          -12 callsubr
          endchar
        </CharString>
        <CharString name="four">
          -61 88 callsubr
          304 78 vstem
          104 7 callgsubr
        </CharString>
        <CharString name="four.dnom">
          -191 104 48 callsubr
          150 -41 callgsubr
          endchar
        </CharString>
        <CharString name="four.numr">
          -191 370 48 callsubr
          416 -41 callgsubr
          endchar
        </CharString>
        <CharString name="g">
          -67 callgsubr
          endchar
        </CharString>
        <CharString name="grave">
          -16 70 callsubr
          128 199 vstem
          285 573 -77 callsubr
        </CharString>
        <CharString name="greater">
          -61 131 402 hstem
          379 84 vstem
          34 131 rmoveto
          429 168 rlineto
          66 vlineto
          -429 168 rlineto
          -71 vlineto
          211 -78 134 -50 rlineto
          -4 vlineto
          -134 -50 -211 -78 rlineto
          endchar
        </CharString>
        <CharString name="h">
          -14 21 9 callsubr
          214 -20 hstem
          82 82 225 82 vstem
          -79 callgsubr
          -67 -49 -36 -44 -46 vhcurveto
          3 100 rlineto
          194 -82 vlineto
          endchar
        </CharString>
        <CharString name="hyphen">
          -247 219 63 hstem
          41 230 vstem
          41 219 rmoveto
          230 63 -230 hlineto
          endchar
        </CharString>
        <CharString name="i">
          -29 callgsubr
        </CharString>
        <CharString name="i.t">
          -29 callgsubr
        </CharString>
        <CharString name="j">
          -28 callsubr
        </CharString>
        <CharString name="k">
          -63 42 callgsubr
          246 -20 hstem
          82 81 -11 callgsubr
          endchar
        </CharString>
        <CharString name="l">
          -37 callsubr
          endchar
        </CharString>
        <CharString name="less">
          -61 131 402 hstem
          34 84 vstem
          463 131 rmoveto
          71 vlineto
          -211 78 -134 50 rlineto
          4 vlineto
          134 50 211 78 rlineto
          71 vlineto
          -429 -168 rlineto
          -66 vlineto
          endchar
        </CharString>
        <CharString name="m">
          -43 callsubr
          endchar
        </CharString>
        <CharString name="n">
          -53 callsubr
          endchar
        </CharString>
        <CharString name="nine">
          -61 -12 68 192 62 275 65 hstem
          40 77 254 77 vstem
          117 -32 callsubr
        </CharString>
        <CharString name="nine.dnom">
          -191 -12 51 106 47 159 51 hstem
          39 59 161 61 vstem
          98 271 -82 callgsubr
        </CharString>
        <CharString name="nine.numr">
          -191 254 51 106 47 159 51 hstem
          39 59 161 61 vstem
          98 537 -82 callgsubr
        </CharString>
        <CharString name="numbersign">
          90 callsubr
          204 57 148 58 183 -20 hstem
          35 432 vstem
          90 hmoveto
          54 hlineto
          25 204 rlineto
          132 hlineto
          -24 -204 rlineto
          53 hlineto
          25 204 rlineto
          92 57 -85 hlineto
          18 148 rlineto
          87 58 -81 hlineto
          24 183 rlineto
          -53 hlineto
          -24 -183 rlineto
          -133 hlineto
          23 183 rlineto
          -53 hlineto
          -23 -183 rlineto
          -92 -58 85 hlineto
          -18 -148 rlineto
          -87 -57 80 hlineto
          61 57 rmoveto
          18 148 rlineto
          132 hlineto
          -18 -148 rlineto
          endchar
        </CharString>
        <CharString name="o">
          -78 callgsubr
          endchar
        </CharString>
        <CharString name="one">
          -61 0 68 470 100 37 callgsubr
          570 52 callgsubr
          -16 -58 -10 rrcurveto
          -53 vlineto
          hintmask 11010000
          116 -470 -146 hlineto
          endchar
        </CharString>
        <CharString name="one.dnom">
          -191 308 54 callsubr
          hmoveto
          -60 callsubr
          endchar
        </CharString>
        <CharString name="one.numr">
          -191 574 54 callsubr
          266 -49 callgsubr
          endchar
        </CharString>
        <CharString name="p">
          -39 callgsubr
        </CharString>
        <CharString name="parenleft">
          -255 -176 908 hstem
          82 68 vstem
          214 -176 rmoveto
          51 24 rlineto
          -77 127 -38 151 152 vvcurveto
          152 38 151 77 127 vhcurveto
          -51 24 rlineto
          -83 -134 -49 -144 -176 vvcurveto
          -176 49 -144 83 -134 vhcurveto
          endchar
        </CharString>
        <CharString name="parenleft.dnom">
          -321 -79 53 callsubr
          -79 -30 callgsubr
        </CharString>
        <CharString name="parenleft.numr">
          -321 187 53 callsubr
          187 -30 callgsubr
        </CharString>
        <CharString name="parenright">
          -255 -176 908 hstem
          153 68 vstem
          89 -176 rmoveto
          83 134 49 144 176 vvcurveto
          176 -49 144 -83 134 vhcurveto
          -51 -24 rlineto
          77 -127 38 -151 -152 vvcurveto
          -152 -38 -151 -77 -127 vhcurveto
          endchar
        </CharString>
        <CharString name="parenright.dnom">
          -321 -79 58 callgsubr
          -79 -35 callsubr
        </CharString>
        <CharString name="parenright.numr">
          -321 187 58 callgsubr
          187 -35 callsubr
        </CharString>
        <CharString name="percent">
          266 -12 51 215 51 46 51 215 61 callsubr
          159 75 callsubr
          vstem
          184 254 -90 callsubr
          19 -317 -60 callgsubr
          76 -680 -66 callgsubr
        </CharString>
        <CharString name="period">
          -309 -12 66 callgsubr
          -12 rmoveto
          -84 callsubr
          endchar
        </CharString>
        <CharString name="period.dnom">
          -381 -8 65 callsubr
          -8 rmoveto
          -12 callgsubr
          endchar
        </CharString>
        <CharString name="period.numr">
          -381 258 65 callsubr
          258 rmoveto
          -12 callgsubr
          endchar
        </CharString>
        <CharString name="plus">
          -61 299 89 callsubr
          104 rmoveto
          65 195 182 62 -182 195 -65 -195 -182 -62 182 hlineto
          endchar
        </CharString>
        <CharString name="q">
          -3 -184 -21 193 -2 callgsubr
          hstemhm
          47 85 258 83 -70 70 hintmask 11101100
          390 -205 rmoveto
          83 hlineto
          hintmask 11011100
          691 vlineto
          hintmask 11011010
          -66 hlineto
          hintmask 11101010
          -8 -46 rlineto
          -2 hlineto
          38 -44 -39 20 -56 hhcurveto
          -111 -100 36 callsubr
          hintmask 11101100
          56 51 30 38 39 hvcurveto
          -4 -88 rlineto
          -124 89 29 callsubr
        </CharString>
        <CharString name="question">
          -133 -12 126 -105 -21 626 68 hstemhm
          139 119 39 80 hintmask 01111000
          160 198 -41 callsubr
          hvcurveto
          hintmask 10111000
          38 -27 26 -33 -33 -26 -26 -38 vhcurveto
          hintmask 01111000
          -36 26 -26 33 vhcurveto
          endchar
        </CharString>
        <CharString name="quotedbl">
          -132 431 60 callsubr
          92 85 vstem
          99 431 22 callgsubr
          193 -167 63 callgsubr
        </CharString>
        <CharString name="quotesingle">
          -309 431 60 callsubr
          vstem
          99 431 63 callgsubr
        </CharString>
        <CharString name="r">
          -23 callsubr
          endchar
        </CharString>
        <CharString name="s">
          -25 callgsubr
        </CharString>
        <CharString name="semicolon">
          -27 callsubr
        </CharString>
        <CharString name="seven">
          90 callsubr
          567 71 hstem
          177 85 vstem
          177 hmoveto
          85 hlineto
          11 249 31 145 151 193 83 callsubr
          -175 -48 86 callsubr
        </CharString>
        <CharString name="seven.dnom">
          -191 335 57 callgsubr
          hmoveto
          -48 callsubr
          endchar
        </CharString>
        <CharString name="seven.numr">
          -191 601 57 callgsubr
          266 rmoveto
          -48 callsubr
          endchar
        </CharString>
        <CharString name="six">
          -61 52 callsubr
          hstemhm
          48 66 callsubr
          hintmask 11110100
          261 -36 callsubr
        </CharString>
        <CharString name="six.dnom">
          -191 -12 51 159 47 106 51 hstem
          45 61 160 60 vstem
          191 198 -44 callgsubr
        </CharString>
        <CharString name="six.numr">
          -191 254 51 159 47 106 51 hstem
          45 61 160 60 vstem
          191 464 -44 callgsubr
        </CharString>
        <CharString name="slash">
          -208 -160 870 hstem
          10 327 vstem
          10 -160 rmoveto
          60 hlineto
          267 870 rlineto
          -60 hlineto
          endchar
        </CharString>
        <CharString name="slash.frac">
          9 callgsubr
        </CharString>
        <CharString name="space">
          -358 endchar
        </CharString>
        <CharString name="space.frac">
          -424 endchar
        </CharString>
        <CharString name="t">
          68 callgsubr
          hstemhm
          96 83 -74 74 hintmask 11100000
          -51 callgsubr
          hintmask 11010000
          26 callsubr
          hintmask 11100000
          5 callgsubr
          endchar
        </CharString>
        <CharString name="three">
          -33 callgsubr
        </CharString>
        <CharString name="three.dnom">
          -191 -12 29 callgsubr
          -12 -54 callsubr
        </CharString>
        <CharString name="three.numr">
          -191 254 29 callgsubr
          254 -54 callsubr
        </CharString>
        <CharString name="two">
          -61 0 71 512 67 hstem
          340 78 callsubr
          -185 82 callgsubr
          151 158 109 119 120 vvcurveto
          113 -73 75 -118 -83 -57 -39 -58 -53 vhcurveto
          47 -47 rlineto
          43 37 46 34 53 hhcurveto
          81 40 -52 -73 -103 -108 -115 -192 -191 hvcurveto
          endchar
        </CharString>
        <CharString name="two.dnom">
          -191 0 55 callsubr
          hmoveto
          -76 callgsubr
          endchar
        </CharString>
        <CharString name="two.numr">
          -191 266 55 callsubr
          -23 callgsubr
          endchar
        </CharString>
        <CharString name="u">
          -79 callsubr
          endchar
        </CharString>
        <CharString name="underscore">
          -58 -126 55 hstem
          12 476 vstem
          12 -126 rmoveto
          476 55 -476 hlineto
          endchar
        </CharString>
        <CharString name="v">
          -91 0 67 419 -20 hstem
          12 443 vstem
          187 hmoveto
          96 hlineto
          172 486 rlineto
          -81 hlineto
          -92 -276 -14 -48 -16 -49 -14 -46 rlinecurve
          -4 hlineto
          -15 46 -16 49 -14 48 -92 276 rcurveline
          -85 hlineto
          endchar
        </CharString>
        <CharString name="w">
          54 callgsubr
          hstem
          24 670 -88 callsubr
          endchar
        </CharString>
        <CharString name="x">
          -30 callsubr
        </CharString>
        <CharString name="y">
          -85 callgsubr
          endchar
        </CharString>
        <CharString name="z">
          13 callsubr
          endchar
        </CharString>
        <CharString name="zero">
          91 callsubr
          530 66 hstem
          44 80 249 80 -13 callsubr
          66 vmoveto
          -75 -50 80 187 187 50 76 75 74 50 -76 -187 -187 -50 -80 -74 hvcurveto
          endchar
        </CharString>
        <CharString name="zero.dnom">
          -191 -12 41 callsubr
          -12 -66 callgsubr
        </CharString>
        <CharString name="zero.numr">
          -191 254 41 callsubr
          254 -66 callgsubr
        </CharString>
      <CharString index="0">
        rmoveto
        165 116 132 211 38 callgsubr
        -211 115 -132 165 hvcurveto
        73 vmoveto
        -117 -77 106 164 163 77 101 117 117 77 -101 -163 -164 7 callsubr
        hvcurveto
        return
      </CharString>
      <CharString index="1">
        32 23 21 33 32 -23 22 -32 -32 -23 -22 -32 -33 23 -21 32 hvcurveto
        return
      </CharString>
      <CharString index="2">
        rmoveto
        -107 callsubr
        return
      </CharString>
      <CharString index="3">
        367 -105 callgsubr
        return
      </CharString>
      <CharString index="4">
        35 callgsubr
        119 106 93 161 77 callgsubr
        -161 106 -93 119 hvcurveto
        68 vmoveto
        -83 -57 75 111 112 57 76 83 84 56 -76 -112 -111 -56 -75 -84 hvcurveto
        return
      </CharString>
      <CharString index="5">
        rmoveto
        85 hlineto
        63 200 rlineto
        239 hlineto
        62 -200 rlineto
        89 hlineto
        -71 callgsubr
        return
      </CharString>
      <CharString index="6">
        121 -50 79 -119 -78 -68 -34 -29 -45 vhcurveto
        32 -57 rlineto
        26 38 51 26 56 hhcurveto
        80 20 -60 -62 hvcurveto
        -207 -23 -91 -53 -106 vvcurveto
        return
      </CharString>
      <CharString index="7">
        vstem
        -104 callsubr
        return
      </CharString>
      <CharString index="8">
        197 402 rlineto
        -87 hlineto
        -84 -185 -20 -48 -23 -46 -23 -49 rlinecurve
        -4 hlineto
        -22 49 -20 46 -21 48 -85 185 rcurveline
        -89 hlineto
        197 -402 rlineto
        return
      </CharString>
      <CharString index="9">
        90 -209 rmoveto
        98 50 73 96 34 hvcurveto
        183 526 rlineto
        -80 hlineto
        -87 -269 -13 -43 -14 -50 -14 -44 rlinecurve
        -4 hlineto
        -15 45 -17 50 -15 42 -99 269 rcurveline
        -85 hlineto
        195 -487 -11 -36 rlineto
        -60 -20 -35 -44 -55 hhcurveto
        -12 -15 4 3 -10 hvcurveto
        -16 -65 rlineto
        -6 16 19 -4 22 hhcurveto
        return
      </CharString>
      <CharString index="10">
        -87 61 -51 81 vhcurveto
        24 66 rmoveto
        -48 -38 23 55 62 56 40 162 20 hvcurveto
        -135 vlineto
        -42 -47 -38 -23 -47 hhcurveto
        return
      </CharString>
      <CharString index="11">
        -70 callsubr
        hvcurveto
        -153 294 rmoveto
        96 10 62 55 68 hhcurveto
        76 44 -53 -98 hvcurveto
        return
      </CharString>
      <CharString index="12">
        71.5 -71.5 82 return
      </CharString>
      <CharString index="13">
        -93 -63 66 103 -6 hvcurveto
        328 hlineto
        2 12 1 18 17 vvcurveto
        139 -70 89 -124 vhcurveto
        return
      </CharString>
      <CharString index="14">
        83 -101 callsubr
        return
      </CharString>
      <CharString index="15">
        28 callgsubr
        -99 callgsubr
        return
      </CharString>
      <CharString index="16">
        -55 21 -50 17 46 vvcurveto
        37 28 33 61 43 35 -18 -25 33 vhcurveto
        40 52 rlineto
        30 -38 -53 25 -60 hhcurveto
        -106 -62 -60 -78 -82 73 -33 69 -25 hvcurveto
        53 -20 58 -22 -50 vvcurveto
        -42 -32 -34 return
      </CharString>
      <CharString index="17">
        3 callgsubr
        hstem
        52 86 388 -103 callsubr
        return
      </CharString>
      <CharString index="18">
        -91 callgsubr
        -64 -58 -43 24 34 -42 vhcurveto
        -41 -55 rlineto
        return
      </CharString>
      <CharString index="19">
        rmoveto
        79 61 55 80 84 -58 47 -70 -23 -21 -7 -8 -19 hvcurveto
        11 95 rlineto
        160 56 -213 hlineto
        -18 -188 31 -23 rlineto
        18 21 22 14 31 hhcurveto
        48 34 -33 -53 -50 -34 -36 -46 -45 -31 22 36 -25 hvcurveto
        -43 -33 rlineto
        45 callgsubr
        return
      </CharString>
      <CharString index="20">
        -158 -68 -50 -87 -86 -67 50 158 vhcurveto
        387 -83 -385 vlineto
        return
      </CharString>
      <CharString index="21">
        196 -92 callgsubr
        return
      </CharString>
      <CharString index="22">
        48 callgsubr
        hstem
        12 443 -73 callsubr
        return
      </CharString>
      <CharString index="23">
        49 49 34 26 50 hhcurveto
        64 28 -56 callgsubr
        -46 66 -102 return
      </CharString>
      <CharString index="24">
        11 51 12 47 10 51 rrcurveto
        4 hlineto
        10 -51 10 -47 12 -51 99 -395 rcurveline
        100 hlineto
        136 656 rlineto
        -80 hlineto
        -69 -357 -13 -70 -12 -71 -12 -71 rlinecurve
        -4 hlineto
        -16 71 -16 72 -16 69 -91 357 rcurveline
        -76 hlineto
        -91 -357 -15 -70 -16 -71 -15 -71 rlinecurve
        -4 hlineto
        -12 71 -14 70 -12 71 -69 357 rcurveline
        -86 hlineto
        return
      </CharString>
      <CharString index="25">
        rmoveto
        47 30 33 41 49 35 -39 -77 6 vhcurveto
        -32 -30 -26 -11 -30 hhcurveto
        -48 -27 33 46 hvcurveto
        52 -283 rmoveto
        96 74 70 147 123 -59 74 -93 -73 -56 -57 -75 -74 44 -51 78 37 33 14 27 28 hvcurveto
        -100 -6 -47 -47 -58 hhcurveto
        -27 -21 11 13 -19 hvcurveto
        -27 -45 rlineto
        -16 23 28 -14 45 hhcurveto
        endchar
      </CharString>
      <CharString index="26">
        -46 -42 -47 -28 -63 hhcurveto
        -124 -79 104 165 163 82 102 124 56 43 -25 -37 35 hvcurveto
        45 54 rlineto
        43 -38 -62 38 -80 hhcurveto
        -167 -124 -129 -211 return
      </CharString>
      <CharString index="27">
        40 19 28 31 46 vvcurveto
        66 -57 39 -67 -54 -40 -25 -39 -34 vhcurveto
        39 -34 rlineto
        27 22 28 20 29 hhcurveto
        43 28 -25 -37 -40 -39 -30 -67 hvcurveto
        -41 vlineto
        return
      </CharString>
      <CharString index="28">
        82 -76 callsubr
        return
      </CharString>
      <CharString index="29">
        -16 -12 68 374 68 -73 callgsubr
        return
      </CharString>
      <CharString index="30">
        vstem
        338 -12 rmoveto
        85 64 35 60 52 hvcurveto
        -46 52 rlineto
        -81 callgsubr
        -214 122 -126 164 hvcurveto
        return
      </CharString>
      <CharString index="31">
        268 55 -165 hlineto
        83 85 62 61 75 vvcurveto
        82 -52 44 -78 -53 -47 -31 -45 -30 vhcurveto
        38 -35 rlineto
        32 22 29 25 33 hhcurveto
        46 29 -31 -51 -59 -64 -61 -121 -109 hvcurveto
        return
      </CharString>
      <CharString index="32">
        -165 -115 -127 -210 return
      </CharString>
      <CharString index="33">
        -36 55 rlineto
        -27 -30 6 callsubr
        -89 -61 75 111 112 64 76 88 39 30 -18 -25 28 hvcurveto
        42 54 -17 callgsubr
        return
      </CharString>
      <CharString index="34">
        hstem
        46 85 280 85 vstem
        -103 callgsubr
        return
      </CharString>
      <CharString index="35">
        77 hlineto
        62 22 32 46 18 19 -4 -8 18 vhcurveto
        18 63 rlineto
        9 -22 -29 7 -30 hhcurveto
        -97 -45 -62 -99 hvcurveto
        return
      </CharString>
      <CharString index="36">
        -222 656 rlineto
        -94 hlineto
        return
      </CharString>
      <CharString index="37">
        -82 1 callgsubr
        hstem
        196 84 4 callsubr
        return
      </CharString>
      <CharString index="38">
        656 -84 -275 -305 275 -83 return
      </CharString>
      <CharString index="39">
        82 -101 callsubr
        return
      </CharString>
      <CharString index="40">
        -38 callgsubr
        76 callgsubr
        hintmask 1101101000100000
        -35 callgsubr
        hintmask 1101100011000000
        -81 callsubr
        hintmask 1101010101000000
        -47 callsubr
        hintmask 1101100011000000
        -39 callsubr
        hintmask 1101101001000000
        41 callgsubr
        hintmask 1101101000100000
        34 callsubr
        hintmask 1101010101000000
        -45 callgsubr
        hintmask 1011101000100000
        -24 callgsubr
        hintmask 1101100100100000
        -10 callsubr
        hintmask 1011101000100000
        55 callgsubr
        return
      </CharString>
      <CharString index="41">
        -90 callsubr
        endchar
      </CharString>
      <CharString index="42">
        hstem
        52 86 -77 callgsubr
        return
      </CharString>
      <CharString index="43">
        30 0 66 247 64 213 66 hstemhm
        90 83 255 82 -44 82 hintmask 11110100
        6 callgsubr
        hintmask 11111000
        62 20 34 58 65 vvcurveto
        115 -92 45 -133 vhcurveto
        -195 hlineto
        83 -279 rmoveto
        213 101 vlineto
        102 52 -29 -76 -67 -46 -41 -112 hvcurveto
        -97 -311 rmoveto
        247 114 vlineto
        hintmask 11110100
        115 64 -37 -81 -88 -66 -41 -113 hvcurveto
        endchar
      </CharString>
      <CharString index="44">
        76 45 -24 -45 -45 -36 -25 -42 -41 -34 22 36 -24 45 callsubr
        30 52 -32 63 hhcurveto
        return
      </CharString>
      <CharString index="45">
        -58 callsubr
        84 return
      </CharString>
      <CharString index="46">
        -24 -4 callsubr
        -57 callgsubr
        return
      </CharString>
      <CharString index="47">
        rmoveto
        56 hlineto
        362 680 rlineto
        -56 hlineto
        return
      </CharString>
      <CharString index="48">
        -62 callgsubr
        -69 callgsubr
        hlineto
        return
      </CharString>
      <CharString index="49">
        40 37 -14 -37 41 hvcurveto
        return
      </CharString>
      <CharString index="50">
        hstem
        74 84 252 -97 callsubr
        return
      </CharString>
      <CharString index="51">
        -3 callgsubr
        308 vlineto
        124 return
      </CharString>
      <CharString index="52">
        -23 -188 rmoveto
        -46 -31 33 35 32 19 28 35 21 hvcurveto
        53 -22 48 -12 -48 vvcurveto
        -37 -35 -30 -43 vhcurveto
        endchar
      </CharString>
      <CharString index="53">
        vlineto
        -45 -40 6 callsubr
        return
      </CharString>
      <CharString index="54">
        57 52 32 37 38 hvcurveto
        3 hlineto
        return
      </CharString>
      <CharString index="55">
        -14 -47 callgsubr
        return
      </CharString>
      <CharString index="56">
        235 -12 rmoveto
        42 callsubr
        hvcurveto
        -16 62 rlineto
        -6 -16 -22 -7 -17 hhcurveto
        -56 -19 34 60 hvcurveto
        270 13 callgsubr
        return
      </CharString>
      <CharString index="57">
        -45 1 callgsubr
        hstem
        15 483 vstem
        15 hmoveto
        88 hlineto
        95 177 16 32 17 33 19 40 rlinecurve
        4 hlineto
        21 -40 18 -33 17 -32 96 -177 rcurveline
        92 hlineto
        -191 335 179 321 rlineto
        -88 hlineto
        -87 -168 -16 -30 -13 -27 -18 -38 rlinecurve
        -4 hlineto
        -20 38 -14 27 -17 30 -89 168 rcurveline
        -92 hlineto
        178 -317 rlineto
        endchar
      </CharString>
      <CharString index="58">
        rmoveto
        -60 callsubr
        return
      </CharString>
      <CharString index="59">
        -69 6 -74 4 -66 vhcurveto
        -4 hlineto
        -71 136 -237 412 rlineto
        -86 return
      </CharString>
      <CharString index="60">
        21 -75 callsubr
        return
      </CharString>
      <CharString index="61">
        rlineto
        4 hlineto
        return
      </CharString>
      <CharString index="62">
        433 vmoveto
        -56 -47 45 71 71 46 42 57 57 46 -42 -71 -71 -47 -45 -56 hvcurveto
        return
      </CharString>
      <CharString index="63">
        rmoveto
        49 26 -33 -46 -47 -29 -33 -42 -48 -35 39 77 -6 hvcurveto
        32 30 26 11 29 hhcurveto
        5 -210 rmoveto
        74 56 57 75 74 -44 51 -78 -37 -33 -14 -26 -28 hvcurveto
        99 7 46 47 58 hhcurveto
        27 21 -11 -13 19 hvcurveto
        26 45 rlineto
        16 -22 -28 14 -45 hhcurveto
        -96 -74 -70 -147 -123 59 -74 92 hvcurveto
        endchar
      </CharString>
      <CharString index="64">
        45 hmoveto
        452 71 -349 hlineto
        346 536 rlineto
        49 -418 -70 314 vlineto
        -345 -536 rlineto
        return
      </CharString>
      <CharString index="65">
        -102 19 callsubr
        -85 callsubr
        return
      </CharString>
      <CharString index="66">
        rmoveto
        61 98 50 81 -46 callgsubr
        -4 -109 rlineto
        -70 vlineto
        -150 vmoveto
        58 104 58 46 -58 240 -72 hlineto
        -164 -253 rlineto
        -33 178 vlineto
        return
      </CharString>
      <CharString index="67">
        -57 -46 -35 -25 -50 hhcurveto
        -64 -27 74 callsubr
        -308 -34 callgsubr
        return
      </CharString>
      <CharString index="68">
        -3 -184 -21 193 69 372 69 -66 callsubr
        258 85 hintmask 11100110
        82 -205 rmoveto
        82 164 hlineto
        -2 85 rlineto
        -35 45 45 -21 45 hhcurveto
        73 callsubr
        151 -67 97 -125 hvcurveto
        hintmask 11101010
        -57 -54 -31 -37 -44 hvcurveto
        -3 hlineto
        hintmask 11011010
        -7 56 rlineto
        hintmask 11010110
        -68 hlineto
        201 -429 79 callsubr
        hintmask 11100110
        15 callsubr
        hintmask 11010110
        -120 -59 -73 -80 vhcurveto
        endchar
      </CharString>
      <CharString index="69">
        -54 -224 57 159 68 -39 -21 154 55 214 63 -48 60 return
      </CharString>
      <CharString index="70">
        90 -59 callgsubr
        return
      </CharString>
      <CharString index="71">
        82 hmoveto
        82 312 hlineto
        82 33 49 30 41 hhcurveto
        20 11 -3 -5 16 hvcurveto
        return
      </CharString>
      <CharString index="72">
        246 -224 rmoveto
        151 95 78 90 81 -57 35 -113 hvcurveto
        return
      </CharString>
      <CharString index="73">
        vlineto
        -124 46 -66 103 vhcurveto
        return
      </CharString>
      <CharString index="74">
        -61 -12 68 244 63 220 67 hstemhm
        159 149 32 84 -61 83 hintmask 11110100
        236 -12 rmoveto
        117 93 69 113 88 -61 56 -77 18 80 callsubr
        69 26 47 49 77 vvcurveto
        103 -80 59 -111 -75 -59 -34 -46 -49 vhcurveto
        44 -52 rlineto
        38 38 45 27 53 hhcurveto
        68 42 -39 -62 -67 -45 -52 -136 hvcurveto
        -63 vlineto
        hintmask 11110100
        152 52 -51 -76 -71 -55 -46 -77 -75 -50 36 40 -38 hvcurveto
        -42 -54 rlineto
        -47 43 65 -43 102 hhcurveto
        endchar
      </CharString>
      <CharString index="75">
        -21 callsubr
        hintmask 11011000
        -52 callsubr
        hintmask 11100100
        0 callgsubr
        hintmask 11011000
        -55 callsubr
        hintmask 11100100
        -55 callgsubr
      </CharString>
      <CharString index="76">
        61 54 32 38 46 hvcurveto
        3 hlineto
        return
      </CharString>
      <CharString index="77">
        rmoveto
        45 22 rlineto
        -51 80 -20 83 89 vvcurveto
        88 20 84 51 78 vhcurveto
        -45 22 rlineto
        -57 -81 -31 -79 -112 vvcurveto
        -113 31 -80 57 -81 vhcurveto
        endchar
      </CharString>
      <CharString index="78">
        0 callsubr
        120 108 hstemhm
        69 85 callgsubr
        hintmask 11101000
        32 callsubr
        hintmask 11110000
        43 callsubr
      </CharString>
      <CharString index="79">
        vstem
        -43 callgsubr
        return
      </CharString>
      <CharString index="80">
        hstemhm
        75 -38 callsubr
        return
      </CharString>
      <CharString index="81">
        -54 -12 -9 callsubr
        return
      </CharString>
      <CharString index="82">
        49 callgsubr
        hstem
        55 79 174 79 vstem
        -93 callsubr
        endchar
      </CharString>
      <CharString index="83">
        12 -376 rmoveto
        -88 -53 33 52 28 15 29 35 25 hvcurveto
        return
      </CharString>
      <CharString index="84">
        266 5 callsubr
        return
      </CharString>
      <CharString index="85">
        -7 callgsubr
        -17 -62 40 callgsubr
        return
      </CharString>
      <CharString index="86">
        -119 -106 -93 -163 return
      </CharString>
      <CharString index="87">
        10 callsubr
        hstem
        52 86 336 76 vstem
        -99 callsubr
        return
      </CharString>
      <CharString index="88">
        -61 -12 68 286 62 163 71 hstem
        366 83 vstem
        234 -12 rmoveto
        111 104 78 138 138 -89 62 -109 -39 -29 -10 -16 -30 hvcurveto
        17 189 rlineto
        247 71 -319 hlineto
        -21 -307 44 -28 rlineto
        25 38 27 14 44 hhcurveto
        82 54 -52 -88 -89 -62 -57 56 callgsubr
      </CharString>
      <CharString index="89">
        hmoveto
        83 260 108 hlineto
        144 98 65 138 144 -99 49 -147 hvcurveto
        -187 hlineto
        83 -328 rmoveto
        261 94 vlineto
        115 58 -31 -95 -93 -55 -42 -114 hvcurveto
        return
      </CharString>
      <CharString index="90">
        rlineto
        31 -34 -44 26 -64 hhcurveto
        -125 -109 -93 -163 return
      </CharString>
      <CharString index="91">
        -24 callsubr
        -31 callsubr
        656 -83 hlineto
        return
      </CharString>
      <CharString index="92">
        226 hmoveto
        84 -6 callsubr
        return
      </CharString>
      <CharString index="93">
        75 vlineto
        153 77 -92 -165 -166 -77 -97 -153 hvcurveto
        return
      </CharString>
      <CharString index="94">
        94 21 36 callgsubr
        275 -20 hstem
        90 83 305 84 vstem
        -37 callgsubr
        endchar
      </CharString>
      <CharString index="95">
        26 19 19 28 29 -19 19 -26 -27 -19 -19 -29 -28 19 -19 27 hvcurveto
        return
      </CharString>
      <CharString index="96">
        vstem
        -17 callsubr
        return
      </CharString>
      <CharString index="97">
        11 74 callgsubr
        hstem
        90 83 269 83 vstem
        -56 callsubr
        return
      </CharString>
      <CharString index="98">
        -19 23 callsubr
        -5 callsubr
        return
      </CharString>
      <CharString index="99">
        hstemhm
        52 80 218 -93 callgsubr
        return
      </CharString>
      <CharString index="100">
        vlineto
        -6 callgsubr
        return
      </CharString>
      <CharString index="101">
        -59 -12 -36 -48 -17 -17 4 4 -12 vhcurveto
        return
      </CharString>
      <CharString index="102">
        -39 43 51 -23 45 hhcurveto
        -14 69 rmoveto
        -32 -44 14 37 -43 hvcurveto
        255 vlineto
        43 46 43 32 callgsubr
        -120 -59 -73 -80 hvcurveto
        return
      </CharString>
      <CharString index="103">
        4 -83 84 callsubr
        21 -56 hhcurveto
        -111 34 callgsubr
        return
      </CharString>
      <CharString index="104">
        -39 -91 hvcurveto
        -297 82 return
      </CharString>
      <CharString index="105">
        -1 callsubr
        -12 -20 return
      </CharString>
      <CharString index="106">
        115 63 66 79 92 -78 29 -70 26 hvcurveto
        return
      </CharString>
      <CharString index="107">
        -38 -22 -36 -38 -49 vvcurveto
        -59 55 -50 82 vhcurveto
        return
      </CharString>
      <CharString index="108">
        21 58 callsubr
        return
      </CharString>
      <CharString index="109">
        82 hmoveto
        82 352 hlineto
        50 45 41 25 36 hhcurveto
        62 51 callsubr
        81 callsubr
        39 25 38 hhcurveto
        61 29 -56 callgsubr
        -48 66 -100 -59 -50 -38 -55 -51 vhcurveto
        58 -20 -40 35 -74 hhcurveto
        return
      </CharString>
      <CharString index="110">
        106 -4 callsubr
        return
      </CharString>
      <CharString index="111">
        hstem
        90 83 305 8 callgsubr
        return
      </CharString>
      <CharString index="112">
        20 callsubr
        81 callgsubr
        vhcurveto
        return
      </CharString>
      <CharString index="113">
        90 hmoveto
        209 hlineto
        147 102 63 129 90 -55 52 -79 15 hvcurveto
        4 vlineto
        return
      </CharString>
      <CharString index="114">
        242 rmoveto
        149 218 18 31 18 28 16 31 rlinecurve
        4 hlineto
        -2 -34 -3 -55 -34 vvcurveto
        -185 vlineto
        -242 vmoveto
        78 176 87 66 -87 396 -92 hlineto
        -273 -408 rlineto
        -54 287 vlineto
        endchar
      </CharString>
      <CharString index="115">
        86 vstem
        11 callgsubr
        return
      </CharString>
      <CharString index="116">
        -472 -12 680 hstem
        -167 418 vstem
        -167 31 callsubr
        endchar
      </CharString>
      <CharString index="117">
        rmoveto
        57 hlineto
        11 378 2 94 rlineto
        -83 hlineto
        2 -94 rlineto
        return
      </CharString>
      <CharString index="118">
        90 -11 callsubr
        69 callgsubr
        520 -14 callgsubr
        return
      </CharString>
      <CharString index="119">
        hintmask 10111000
        39 callsubr
        hintmask 10110100
        -50 callsubr
        hintmask 01110100
        7 -76 rlineto
        hintmask 01111000
        68 return
      </CharString>
      <CharString index="120">
        131 67 -131 136 vlineto
        return
      </CharString>
      <CharString index="121">
        87 21 callsubr
        return
      </CharString>
      <CharString index="122">
        71 206 70 return
      </CharString>
      <CharString index="123">
        125 349 rmoveto
        -84 callsubr
        return
      </CharString>
      <CharString index="124">
        73 534 73 return
      </CharString>
      <CharString index="125">
        vlineto
        -71 25 -39 62 vhcurveto
        return
      </CharString>
      <CharString index="126">
        60 -44 59 127 60 -47 60 return
      </CharString>
      <CharString index="127">
        68 374 68 return
      </CharString>
      <CharString index="128">
        hvcurveto
        -11 62 rlineto
        return
      </CharString>
      <CharString index="129">
        rmoveto
        50 hlineto
        16 167 3 92 rlineto
        -88 hlineto
        3 -92 rlineto
        return
      </CharString>
      <CharString index="130">
        486 -82 hlineto
        return
      </CharString>
      <CharString index="131">
        32 -217 -8 callsubr
        return
      </CharString>
      <CharString index="132">
        47 318 49 hstemhm
        45 19 callgsubr
        hintmask 11100100
        182 return
      </CharString>
      <CharString index="133">
        255 vlineto
        43 48 41 32 callgsubr
        return
      </CharString>
      <CharString index="134">
        rmoveto
        97 36 63 99 hvcurveto
        return
      </CharString>
      <CharString index="135">
        hmoveto
        84 254 hlineto
        return
      </CharString>
      <CharString index="136">
        51 139 31 callgsubr
        hintmask 11101000
        180 return
      </CharString>
      <CharString index="137">
        74 -43 76 214 71 -56 79 hintmask 11100100
        return
      </CharString>
      <CharString index="138">
        68 callsubr
        240 63 -48 64 return
      </CharString>
      <CharString index="139">
        23 41 hhcurveto
        92 36 -72 -107 return
      </CharString>
      <CharString index="140">
        73 210 69 255 73 return
      </CharString>
      <CharString index="141">
        -100 -98 -158 return
      </CharString>
      <CharString index="142">
        271 -12 rmoveto
        return
      </CharString>
      <CharString index="143">
        -21 309 72 return
      </CharString>
      <CharString index="144">
        hstemhm
        109 198 -82 82 hintmask 11010000
        79 hmoveto
        360 68 -132 return
      </CharString>
      <CharString index="145">
        209 -116 128 -165 -75 callgsubr
        return
      </CharString>
      <CharString index="146">
        162 hmoveto
        99 hlineto
        97 395 rlineto
        return
      </CharString>
      <CharString index="147">
        rlineto
        -7 56 callsubr
        return
      </CharString>
      <CharString index="148">
        -44 -30 -27 -39 -41 vvcurveto
        return
      </CharString>
      <CharString index="149">
        21 24 callsubr
        return
      </CharString>
      <CharString index="150">
        73 595 -20 return
      </CharString>
      <CharString index="151">
        -62 66 -419 82 419 203 vlineto
        return
      </CharString>
      <CharString index="152">
        -44 31 48 -32 69 hhcurveto
        return
      </CharString>
      <CharString index="153">
        68 712 -83 -187 hlineto
        -4 callgsubr
        hvcurveto
        return
      </CharString>
      <CharString index="154">
        -58 -51 -36 -46 -42 hvcurveto
        -3 hlineto
        return
      </CharString>
      <CharString index="155">
        -91 -209 68 627 -20 return
      </CharString>
      <CharString index="156">
        -139 -12 86 callgsubr
        return
      </CharString>
      <CharString index="157">
        vstem
        90 hmoveto
        370 71 62 callgsubr
        hlineto
        return
      </CharString>
      <CharString index="158">
        429 62 -429 hlineto
        return
      </CharString>
      <CharString index="159">
        -63 hlineto
        hintmask 11100000
        -35 -21 -42 return
      </CharString>
      <CharString index="160">
        -21 277 68 244 67 return
      </CharString>
      <CharString index="161">
        160 0 70 331 85 return
      </CharString>
      <CharString index="162">
        -51 -61 -48 -93 vhcurveto
        return
      </CharString>
      <CharString index="163">
        -78 -75 -48 35 38 -38 hvcurveto
        -40 -54 rlineto
        -44 44 63 -43 102 hhcurveto
        endchar
      </CharString>
      <CharString index="164">
        55 hstem
        131 67 vstem
        131 return
      </CharString>
      <CharString index="165">
        546 hstem
        110 62 vstem
        86 return
      </CharString>
      <CharString index="166">
        -45 rlinecurve
        -4 hlineto
        return
      </CharString>
      <CharString index="167">
        -62 callsubr
        hstem
        90 83 return
      </CharString>
      <CharString index="168">
        21 80 callgsubr
        return
      </CharString>
      <CharString index="169">
        -287 585 -83 return
      </CharString>
      <CharString index="170">
        22 callgsubr
        endchar
      </CharString>
      <CharString index="171">
        51 callgsubr
        endchar
      </CharString>
      <CharString index="172">
        -71 callsubr
        hstemhm
        return
      </CharString>
      <CharString index="173">
        126 hstem
        65 119 vstem
        125 return
      </CharString>
      <CharString index="174">
        hstemhm
        45 72 -54 80 -70 69 return
      </CharString>
      <CharString index="175">
        -220 -12 67 364 67 return
      </CharString>
      <CharString index="176">
        hlineto
        83 -588 rmoveto
        return
      </CharString>
      <CharString index="177">
        hlineto
        hintmask 11010000
        117 47 hlineto
        hintmask 11100000
        -179 hlineto
        endchar
      </CharString>
      <CharString index="178">
        51 172 43 80 56 hstem
        259 64 vstem
        183 return
      </CharString>
      <CharString index="179">
        202 4 75 69 89 hhcurveto
        40 39 -19 -31 26 hvcurveto
        return
      </CharString>
      <CharString index="180">
        -311 -217 67 636 -20 return
      </CharString>
      <CharString index="181">
        21 53 callgsubr
        return
      </CharString>
      <CharString index="182">
        35 75 callsubr
        return
      </CharString>
      <CharString index="183">
        67 callgsubr
        207 75 -12 80 return
      </CharString>
      <CharString index="184">
        163 -106 93 -119 -21 callgsubr
        return
      </CharString>
      <CharString index="185">
        -27 26 -32 -33 -27 -26 return
      </CharString>
      <CharString index="186">
        88 hstem
        97 47 vstem
        49 return
      </CharString>
      <CharString index="187">
        -21 419 67 return
      </CharString>
      <CharString index="188">
        -96 35 -66 104 return
      </CharString>
      <CharString index="189">
        hlineto
        -33 -39 -3 -3 -35 hvcurveto
        return
      </CharString>
      <CharString index="190">
        47 hstemhm
        31 178 -62 62 return
      </CharString>
      <CharString index="191">
        -250 1000 hstem
        92 58 return
      </CharString>
      <CharString index="192">
        110 -97 82 return
      </CharString>
      <CharString index="193">
        64 382 64 return
      </CharString>
      <CharString index="194">
        54 vhcurveto
        27 47 -45 hlineto
        -79 -38 return
      </CharString>
      <CharString index="195">
        hvcurveto
        hintmask 1011111110000000
        return
      </CharString>
      <CharString index="196">
        47 hstemhm
        34 90 -13 73 hintmask 11101000
        228 return
      </CharString>
      <CharString index="197">
        -64 21 -21 294 70 222 70 return
      </CharString>
      <CharString index="198">
        hlineto
        hintmask 11101000
        return
      </CharString>
      <CharString index="199">
        hlineto
        hintmask 11010110
        return
      </CharString>
      <CharString index="200">
        103 67 hlineto
        return
      </CharString>
</ttFont>
